<?xml version="1.0" standalone="no"?>
<!DOCTYPE svg PUBLIC "-//W3C//DTD SVG 20010904//EN"
 "http://www.w3.org/TR/2001/REC-SVG-20010904/DTD/svg10.dtd">
<svg version="1.0" xmlns="http://www.w3.org/2000/svg"
 width="493.000000pt" height="491.000000pt" viewBox="0 0 493.000000 491.000000"
 preserveAspectRatio="xMidYMid meet">

<g transform="translate(0.000000,491.000000) scale(0.100000,-0.100000)"
fill="#000000" stroke="none">
<path d="M2922 3462 l-111 -148 -88 18 c-125 27 -304 20 -428 -17 -302 -89
-530 -317 -621 -620 -36 -122 -44 -304 -19 -426 36 -180 114 -329 240 -457 65
-66 87 -83 106 -80 47 6 35 42 -39 115 -206 203 -292 485 -233 769 85 414 490
707 907 655 53 -6 102 -15 109 -19 19 -10 -290 -418 -313 -414 -49 8 -121 3
-147 -11 -37 -19 -66 -50 -138 -147 -68 -91 -86 -149 -68 -210 16 -53 72 -116
118 -131 53 -17 126 -7 166 24 39 29 161 189 176 231 17 43 13 103 -9 147 -12
23 -17 45 -13 53 4 7 135 182 291 389 297 393 312 418 251 425 -23 3 -39 -14
-137 -146z"/>
<path d="M1883 3455 c-61 -26 -73 -97 -22 -139 40 -34 71 -33 111 3 33 29 33
30 16 58 -20 34 -37 39 -63 19 -25 -18 -14 -31 14 -17 16 9 22 8 30 -8 13 -24
-17 -53 -56 -53 -29 0 -63 33 -63 61 0 22 41 61 63 61 9 0 17 7 17 15 0 18 -6
18 -47 0z"/>
<path d="M1716 3323 c-3 -4 13 -26 36 -50 46 -47 44 -49 -46 -32 -87 16 -93 1
-26 -66 50 -51 80 -68 80 -46 0 5 -21 28 -46 50 -51 45 -50 46 44 30 93 -17
100 -3 32 66 -55 56 -62 60 -74 48z"/>
<path d="M3000 3180 c-12 -23 -7 -28 94 -114 64 -54 151 -165 189 -241 68
-138 91 -254 85 -423 -4 -109 -10 -141 -37 -222 -18 -52 -41 -109 -52 -126
l-19 -32 41 -281 c23 -155 39 -284 37 -286 -3 -3 -108 43 -234 100 -249 115
-240 113 -354 79 -115 -33 -356 -28 -442 9 l-27 12 99 132 99 131 58 -5 c95
-8 128 16 251 177 163 216 177 237 162 255 -7 8 -18 15 -25 15 -7 0 -52 -52
-100 -116 l-87 -117 -20 47 -21 46 73 97 c57 75 71 100 63 112 -21 34 -41 21
-113 -76 -40 -54 -73 -99 -74 -100 -1 -1 -22 4 -48 11 l-46 12 60 79 c103 137
112 153 98 170 -7 8 -18 15 -25 15 -11 0 -229 -283 -279 -361 -28 -44 -31
-110 -7 -164 11 -26 18 -52 14 -59 -4 -6 -123 -166 -265 -355 -144 -190 -258
-351 -256 -360 2 -10 15 -17 33 -19 28 -3 38 8 167 181 l137 183 93 -24 c151
-39 374 -31 501 17 24 9 52 -1 248 -89 304 -138 317 -143 334 -136 8 3 15 16
15 28 1 13 -18 158 -42 324 l-42 301 31 69 c52 111 65 176 70 332 6 152 -3
220 -39 327 -56 164 -179 335 -309 431 -54 39 -74 42 -89 14z m-372 -996 c32
-21 55 -79 47 -120 -3 -20 -20 -45 -42 -64 -32 -29 -41 -32 -81 -27 -32 3 -53
13 -74 34 -100 101 31 255 150 177z"/>
<path d="M1550 3135 c0 -8 121 -95 131 -95 22 0 4 22 -48 59 -52 37 -83 50
-83 36z"/>
<path d="M1476 3008 c-18 -25 -21 -68 -6 -68 6 0 10 9 10 19 0 25 27 52 45 45
8 -3 17 -22 20 -42 9 -54 26 -93 39 -89 11 4 56 75 56 90 0 17 -20 5 -36 -23
-20 -33 -34 -24 -34 20 0 36 -27 70 -55 70 -13 0 -31 -10 -39 -22z"/>
<path d="M1408 2833 c-55 -63 -14 -143 72 -143 39 0 70 41 70 91 0 36 -2 39
-35 45 -42 7 -41 8 -50 -29 -5 -18 -3 -27 5 -27 6 0 14 8 17 19 7 26 43 15 43
-13 0 -51 -64 -80 -104 -46 -20 16 -21 74 -1 90 16 14 20 30 7 30 -5 0 -16 -8
-24 -17z"/>
<path d="M1345 2612 c-16 -17 2 -36 63 -64 l67 -30 -72 -25 c-43 -14 -73 -30
-73 -38 0 -20 8 -22 87 -26 90 -5 99 14 11 21 l-63 5 68 23 c42 15 67 29 67
38 0 9 -25 26 -55 40 -30 14 -55 28 -55 31 0 3 27 2 60 -2 42 -5 60 -4 60 4 0
7 -6 13 -12 16 -23 7 -147 13 -153 7z"/>
<path d="M1417 2339 c-69 -8 -86 -13 -74 -26 10 -9 158 11 158 22 1 13 -6 13
-84 4z"/>
</g>
</svg>
